<svg width="1176" height="194" viewBox="0 0 1176 194" fill="none" xmlns="http://www.w3.org/2000/svg">
<path d="M8 134.854C126.164 97.1318 289.932 27.992 499.003 89.6711C757.438 202.061 980.437 193.504 1168 64" stroke="#99A3B7" stroke-width="15" stroke-linecap="round"/>
<path d="M8 185.426C131.51 185.426 256.767 196.343 433.367 122.931C821.02 -45.0421 908.699 51.4885 1168 8" stroke="#99A3B7" stroke-width="15" stroke-linecap="round"/>
<path d="M228.864 160V126.482C234.214 132.358 241.57 135.162 250.531 135.162C270.726 135.162 286.374 120.74 286.374 98.1723C286.374 75.6045 270.726 61.1825 250.531 61.1825C240.901 61.1825 233.144 64.2538 227.928 70.5301V62.2508H208V160H228.864ZM246.92 118.069C236.488 118.069 228.597 110.591 228.597 98.1723C228.597 85.7533 236.488 78.2752 246.92 78.2752C257.352 78.2752 265.243 85.7533 265.243 98.1723C265.243 110.591 257.352 118.069 246.92 118.069ZM334.522 135.162C357.393 135.162 373.977 119.805 373.977 98.1723C373.977 76.5392 357.393 61.1825 334.522 61.1825C311.652 61.1825 294.934 76.5392 294.934 98.1723C294.934 119.805 311.652 135.162 334.522 135.162ZM334.522 118.069C324.09 118.069 316.066 110.591 316.066 98.1723C316.066 85.7533 324.09 78.2752 334.522 78.2752C344.954 78.2752 352.845 85.7533 352.845 98.1723C352.845 110.591 344.954 118.069 334.522 118.069ZM398.318 52.2355C406.076 52.2355 411.292 47.1611 411.292 40.2171C411.292 33.8073 406.076 29 398.318 29C390.561 29 385.345 34.0744 385.345 40.6177C385.345 47.1611 390.561 52.2355 398.318 52.2355ZM408.75 134.094V62.2508H387.886V134.094H408.75ZM449.008 134.094V98.5729C449.008 85.3527 456.23 79.21 466.261 79.21C475.489 79.21 480.839 84.5515 480.839 96.1692V134.094H501.703V92.9643C501.703 71.0642 488.863 61.1825 471.878 61.1825C462.115 61.1825 453.689 64.5209 448.071 70.6636V62.2508H428.143V134.094H449.008ZM549.985 135.162C556.404 135.162 562.69 133.693 566.97 130.622L561.353 115.933C559.079 117.669 556.003 118.603 552.927 118.603C547.31 118.603 543.966 115.265 543.966 109.122V79.8777H561.888V63.8532H543.966V46.3598H523.102V63.8532H512.001V79.8777H523.102V109.389C523.102 126.482 532.999 135.162 549.985 135.162ZM599.604 134.094V98.0387C599.604 85.2192 606.157 79.21 615.386 79.21C624.079 79.21 629.028 84.5515 629.028 96.1692V134.094H649.892V98.0387C649.892 85.2192 656.445 79.21 665.807 79.21C674.233 79.21 679.449 84.5515 679.449 96.1692V134.094H700.313V92.9643C700.313 71.0642 688.009 61.1825 670.89 61.1825C660.056 61.1825 650.694 65.5892 644.943 72.9337C639.861 65.055 631.301 61.1825 621.271 61.1825C612.042 61.1825 604.017 64.3874 598.668 70.5301V62.2508H578.74V134.094H599.604ZM741.239 135.162C751.805 135.162 759.295 131.69 763.173 125.147V134.094H782.7V93.0979C782.7 71.3313 769.994 61.1825 748.06 61.1825C736.558 61.1825 724.922 64.2538 717.032 69.8624L724.521 84.4179C729.737 80.2783 737.628 77.7411 745.252 77.7411C756.486 77.7411 761.836 82.949 761.836 91.896H745.252C723.318 91.896 714.357 100.709 714.357 113.396C714.357 125.814 724.388 135.162 741.239 135.162ZM746.455 121.141C739.099 121.141 734.686 117.669 734.686 112.461C734.686 107.653 737.762 104.048 747.525 104.048H761.836V111.392C759.429 117.936 753.41 121.141 746.455 121.141ZM830.982 135.162C837.402 135.162 843.688 133.693 847.967 130.622L842.35 115.933C840.077 117.669 837 118.603 833.924 118.603C828.307 118.603 824.963 115.265 824.963 109.122V79.8777H842.885V63.8532H824.963V46.3598H804.099V63.8532H792.998V79.8777H804.099V109.389C804.099 126.482 813.996 135.162 830.982 135.162ZM870.169 52.2355C877.926 52.2355 883.142 47.1611 883.142 40.2171C883.142 33.8073 877.926 29 870.169 29C862.412 29 857.196 34.0744 857.196 40.6177C857.196 47.1611 862.412 52.2355 870.169 52.2355ZM880.601 134.094V62.2508H859.737V134.094H880.601ZM934.768 135.162C949.881 135.162 961.784 128.485 967 117.001L950.817 108.188C946.938 115.131 941.187 118.069 934.634 118.069C924.068 118.069 915.776 110.725 915.776 98.1723C915.776 85.6198 924.068 78.2752 934.634 78.2752C941.187 78.2752 946.938 81.3466 950.817 88.157L967 79.4771C961.784 67.7258 949.881 61.1825 934.768 61.1825C911.362 61.1825 894.644 76.5392 894.644 98.1723C894.644 119.805 911.362 135.162 934.768 135.162Z" fill="#99A3B7"/>
</svg>
