<?xml version="1.0" encoding="UTF-8"?>
<svg width="24px" height="24px" viewBox="0 0 24 24" version="1.1" xmlns="http://www.w3.org/2000/svg" xmlns:xlink="http://www.w3.org/1999/xlink">
    <title>24</title>
    <g id="24" stroke="none" stroke-width="1" fill="none" fill-rule="evenodd">
        <path d="M5.5224584,12.1313107 L5.5224584,19 C5.5224584,20.1045695 6.4178889,21 7.5224584,21 L16.5119373,21 C17.6165068,21 18.5119373,20.1045695 18.5119373,19 L18.5119373,12.0393601 C18.5119373,11.4870753 18.9596525,11.0393601 19.5119373,11.0393601 L21.2007393,11.0393601 L21.2007393,11.0393601 L13.4228797,3.3979227 C12.6364334,2.62527049 11.3730387,2.63476779 10.5982971,3.41915591 L2.98098742,11.1313107 L2.98098742,11.1313107 L4.5224584,11.1313107 C5.07474315,11.1313107 5.5224584,11.5790259 5.5224584,12.1313107 Z" id="Path-8" stroke="#2A2F35" stroke-linejoin="round"></path>
        <g id="Group" transform="translate(8.000000, 10.000000)" stroke="#2A2F35">
            <rect id="Rectangle" x="0.5" y="0.5" width="7" height="7" rx="1"></rect>
            <line x1="6.19047619" y1="3.33333333" x2="2" y2="3.33333333" id="Line-2" stroke-linecap="square"></line>
        </g>
    </g>
</svg>