<?xml version="1.0" encoding="UTF-8"?>
<svg width="24px" height="24px" viewBox="0 0 24 24" version="1.1" xmlns="http://www.w3.org/2000/svg" xmlns:xlink="http://www.w3.org/1999/xlink">
    <title>24</title>
    <g id="24" stroke="none" stroke-width="1" fill="none" fill-rule="evenodd">
        <path d="M12.8333333,22 L11.1666667,22 C10.4775,22 9.91666667,21.4391667 9.91666667,20.75 L9.91666667,19.1983333 C9.38333333,19.0441667 8.87,18.83125 8.38291667,18.5620833 L7.28541667,19.66 C6.81291667,20.1325 5.99,20.1316667 5.5175,19.66 L4.33875,18.4816667 C4.1025,18.2458333 3.9725,17.9316667 3.9725,17.5979167 C3.9725,17.2641667 4.1025,16.95 4.33875,16.7141667 L5.43666667,15.6158333 C5.16791667,15.13 4.955,14.6166667 4.80125,14.0829167 L3.25,14.0829167 C2.56083333,14.0829167 2,13.5220833 2,12.8329167 L2,11.16625 C2,10.8320833 2.13,10.5183333 2.36583333,10.2825 C2.60208333,10.0466667 2.91583333,9.91625 3.25,9.91625 L4.80166667,9.91625 C4.95583333,9.38375 5.16833333,8.87 5.4375,8.38333333 L4.34,7.28541667 C3.8525,6.79791667 3.8525,6.00541667 4.34,5.51791667 L5.51833333,4.33916667 C5.99041667,3.8675 6.81375,3.86666667 7.28625,4.33916667 L8.38416667,5.43708333 C8.87083333,5.16833333 9.38416667,4.95541667 9.91666667,4.80166667 L9.91666667,3.25 C9.91666667,2.56083333 10.4775,2 11.1666667,2 L12.8333333,2 C13.5225,2 14.0833333,2.56083333 14.0833333,3.25 L14.0833333,4.80166667 C14.6166667,4.95583333 15.13,5.16875 15.6158333,5.43708333 L16.71375,4.33916667 C17.18625,3.8675 18.0091667,3.86666667 18.4816667,4.33916667 L19.6604167,5.5175 C19.8966667,5.75333333 20.0266667,6.0675 20.0266667,6.40125 C20.0266667,6.735 19.8966667,7.04916667 19.6604167,7.285 L18.5629167,8.38291667 C18.8320833,8.86958333 19.045,9.38291667 19.19875,9.91625 L20.75,9.91625 C21.4391667,9.91625 22,10.4770833 22,11.16625 L22,12.8329167 C22,13.1670833 21.87,13.4808333 21.6341667,13.7166667 C21.3983333,13.9525 21.0841667,14.0829167 20.75,14.0829167 L19.1983333,14.0829167 C19.0441667,14.61625 18.83125,15.13 18.5625,15.61625 L19.66,16.7141667 C20.1475,17.2016667 20.1475,17.9941667 19.66,18.4816667 L18.4816667,19.6604167 C18.0091667,20.1325 17.18625,20.1325 16.71375,19.6604167 L15.6166667,18.5625 C15.13,18.8316667 14.61625,19.0441667 14.08375,19.1983333 L14.08375,20.75 C14.0833333,21.4391667 13.5229167,22 12.8333333,22 Z M8.38240909,17.5219091 C8.45563636,17.5219091 8.52968182,17.5415455 8.59554545,17.5816364 C9.17481818,17.9359091 9.80195455,18.1960909 10.4597727,18.3552273 C10.6434545,18.3998182 10.7727273,18.5638636 10.7727273,18.7528636 L10.7727273,20.5909091 C10.7727273,20.8167273 10.9564091,21 11.1818182,21 L12.8181818,21 C13.0435909,21 13.2272727,20.8167273 13.2272727,20.5909091 L13.2272727,18.7528636 C13.2272727,18.5638636 13.3565455,18.3998182 13.5402273,18.3552273 C14.1972273,18.1960909 14.8243636,17.9367273 15.4040455,17.5820455 C15.5660455,17.4834545 15.7730455,17.5084091 15.9068182,17.6417727 L17.2069091,18.9422727 C17.3603182,19.0952727 17.6319545,19.0960909 17.7857727,18.9422727 L18.9426818,17.7849545 C19.1022273,17.6254091 19.1022273,17.3660455 18.9426818,17.2065 L17.6421818,15.906 C17.5084091,15.7726364 17.4838636,15.5644091 17.5824545,15.4032273 C17.9363182,14.8247727 18.1960909,14.1976364 18.3552273,13.5394091 C18.3994091,13.3557273 18.5638636,13.2260455 18.7528636,13.2260455 L20.5909091,13.2260455 C20.7001364,13.2260455 20.8032273,13.1835 20.8805455,13.1061818 C20.9574545,13.0300909 21,12.9274091 21,12.8177727 L21,11.1814091 C21,10.9555909 20.8163182,10.7723182 20.5909091,10.7723182 L18.7528636,10.7723182 C18.5638636,10.7723182 18.3994091,10.6430455 18.3552273,10.4589545 C18.1965,9.80154545 17.9367273,9.17440909 17.5824545,8.59513636 C17.4838636,8.43395455 17.5084091,8.22654545 17.6421818,8.09236364 L18.9426818,6.79186364 C19.0187727,6.71536364 19.0625455,6.61022727 19.0625455,6.50263636 C19.0625455,6.39504545 19.0187727,6.2895 18.9426818,6.21340909 L17.7853636,5.0565 C17.6307273,4.90227273 17.3611364,4.90227273 17.2065,5.0565 L15.906,6.357 C15.7726364,6.49118182 15.5652273,6.51613636 15.4032273,6.41672727 C14.8251818,6.06327273 14.1984545,5.80309091 13.5402273,5.64395455 C13.3569545,5.60018182 13.2272727,5.43613636 13.2272727,5.24713636 L13.2272727,3.40909091 C13.2272727,3.18327273 13.0435909,3 12.8181818,3 L11.1818182,3 C10.9564091,3 10.7727273,3.18327273 10.7727273,3.40909091 L10.7727273,5.24713636 C10.7727273,5.43613636 10.6434545,5.60018182 10.4597727,5.64477273 C9.80277273,5.8035 9.17563636,6.06327273 8.59595455,6.41754545 C8.43436364,6.51613636 8.22695455,6.49159091 8.09359091,6.35781818 L6.79309091,5.05731818 C6.63845455,4.90309091 6.36886364,4.90309091 6.21422727,5.05731818 L5.05772727,6.21422727 C4.89818182,6.37377273 4.89818182,6.63313636 5.05772727,6.79268182 L6.35822727,8.09318182 C6.492,8.22654545 6.51654545,8.43477273 6.41795455,8.59595455 C6.06368182,9.17522727 5.80390909,9.80236364 5.64518182,10.4593636 C5.601,10.6430455 5.43654545,10.7727273 5.24754545,10.7727273 L3.40909091,10.7727273 C3.29986364,10.7727273 3.19677273,10.8152727 3.11945455,10.8925909 C3.04254545,10.9690909 3,11.0717727 3,11.1814091 L3,12.8177727 C3,13.0435909 3.18368182,13.2268636 3.40909091,13.2268636 L5.24713636,13.2268636 C5.43613636,13.2268636 5.60059091,13.3561364 5.64477273,13.5402273 C5.80390909,14.1980455 6.06368182,14.8251818 6.41754545,15.4036364 C6.51613636,15.5648182 6.49159091,15.7722273 6.35781818,15.9064091 L5.05731818,17.2073182 C4.98122727,17.2838182 4.93745455,17.3889545 4.93745455,17.4965455 C4.93745455,17.6041364 4.98122727,17.7096818 5.05731818,17.7857727 L6.21463636,18.9426818 C6.36886364,19.0969091 6.63886364,19.0969091 6.7935,18.9426818 L8.09359091,17.6421818 C8.17213636,17.5628182 8.27645455,17.5219091 8.38240909,17.5219091 Z" id="Shape" fill="#2A2F35" fill-rule="nonzero"></path>
        <circle id="Oval" stroke="#2A2F35" cx="12" cy="12" r="3.5"></circle>
    </g>
</svg>